{
  "accessors": [
    {
      "bufferView": 2,
      "componentType": 5126,
      "count": 456,
      "max": [
        0.3714703917503357,
        0.028920859098434448,
        7.002503395080566
      ],
      "min": [
        -0.3714703917503357,
        -0.2563251554965973,
        3.5947790145874023
      ],
      "type": "VEC3"
    },
    {
      "bufferView": 2,
      "byteOffset": 5472,
      "componentType": 5126,
      "count": 456,
      "max": [
        0.957892656326294,
        -0.2437758594751358,
        0.6793203353881836
      ],
      "min": [
        -0.957891047000885,
        -1.0,
        -0.7086326479911804
      ],
      "type": "VEC3"
    },
    {
      "bufferView": 1,
      "componentType": 5126,
      "count": 456,
      "max": [
        1.0026792287826538,
        1.0005109310150146
      ],
      "min": [
        0.0,
        0.0
      ],
      "type": "VEC2"
    },
    {
      "bufferView": 0,
      "componentType": 5125,
      "count": 720,
      "type": "SCALAR"
    },
    {
      "bufferView": 2,
      "byteOffset": 10944,
      "componentType": 5126,
      "count": 179,
      "max": [
        0.3714703917503357,
        0.18650665879249573,
        7.002503395080566
      ],
      "min": [
        -0.3714703917503357,
        -0.09759345650672913,
        3.5947790145874023
      ],
      "type": "VEC3"
    },
    {
      "bufferView": 2,
      "byteOffset": 13092,
      "componentType": 5126,
      "count": 179,
      "max": [
        1.0,
        1.0,
        1.0
      ],
      "min": [
        -1.0,
        -8.719794664102665e-07,
        -1.0
      ],
      "type": "VEC3"
    },
    {
      "bufferView": 1,
      "byteOffset": 3648,
      "componentType": 5126,
      "count": 179,
      "max": [
        1.0,
        1.0
      ],
      "min": [
        0.0,
        0.0
      ],
      "type": "VEC2"
    },
    {
      "bufferView": 0,
      "byteOffset": 2880,
      "componentType": 5125,
      "count": 309,
      "type": "SCALAR"
    },
    {
      "bufferView": 2,
      "byteOffset": 15240,
      "componentType": 5126,
      "count": 210,
      "max": [
        0.3254407048225403,
        0.2828223705291748,
        6.551407337188721
      ],
      "min": [
        -0.3254406154155731,
        -0.08504241704940796,
        4.443248748779297
      ],
      "type": "VEC3"
    },
    {
      "bufferView": 2,
      "byteOffset": 17760,
      "componentType": 5126,
      "count": 210,
      "max": [
        0.9400006532669067,
        0.9996201992034912,
        0.9462066888809204
      ],
      "min": [
        -0.9400006532669067,
        -0.9143878221511841,
        -0.9017665386199951
      ],
      "type": "VEC3"
    },
    {
      "bufferView": 1,
      "byteOffset": 5080,
      "componentType": 5126,
      "count": 210,
      "max": [
        0.7500001192092896,
        1.0000001192092896
      ],
      "min": [
        0.2499999701976776,
        0.49999991059303284
      ],
      "type": "VEC2"
    },
    {
      "bufferView": 0,
      "byteOffset": 4116,
      "componentType": 5125,
      "count": 1248,
      "type": "SCALAR"
    },
    {
      "bufferView": 2,
      "byteOffset": 20280,
      "componentType": 5126,
      "count": 3177,
      "max": [
        0.9338942170143127,
        0.44230371713638306,
        6.790038585662842
      ],
      "min": [
        -0.9338942170143127,
        -0.3328865170478821,
        2.0062239170074463
      ],
      "type": "VEC3"
    },
    {
      "bufferView": 2,
      "byteOffset": 58404,
      "componentType": 5126,
      "count": 3177,
      "max": [
        1.0,
        1.0,
        1.0
      ],
      "min": [
        -1.0,
        -1.0,
        -1.0
      ],
      "type": "VEC3"
    },
    {
      "bufferView": 1,
      "byteOffset": 6760,
      "componentType": 5126,
      "count": 3177,
      "max": [
        1.0000001192092896,
        1.0000001192092896
      ],
      "min": [
        0.0,
        0.0
      ],
      "type": "VEC2"
    },
    {
      "bufferView": 0,
      "byteOffset": 9108,
      "componentType": 5125,
      "count": 5529,
      "type": "SCALAR"
    },
    {
      "bufferView": 2,
      "byteOffset": 96528,
      "componentType": 5126,
      "count": 130,
      "max": [
        0.46711817383766174,
        0.10148454457521439,
        6.747838020324707
      ],
      "min": [
        -0.46711814403533936,
        -0.03226892650127411,
        6.614084243774414
      ],
      "type": "VEC3"
    },
    {
      "bufferView": 2,
      "byteOffset": 98088,
      "componentType": 5126,
      "count": 130,
      "max": [
        0.6857142448425293,
        0.7278809547424316,
        0.7278962135314941
      ],
      "min": [
        -0.6857142448425293,
        -0.7278809547424316,
        -0.7278809547424316
      ],
      "type": "VEC3"
    },
    {
      "bufferView": 1,
      "byteOffset": 32176,
      "componentType": 5126,
      "count": 130,
      "max": [
        1.0,
        1.0
      ],
      "min": [
        0.0,
        0.01000000536441803
      ],
      "type": "VEC2"
    },
    {
      "bufferView": 0,
      "byteOffset": 31224,
      "componentType": 5125,
      "count": 372,
      "type": "SCALAR"
    },
    {
      "bufferView": 3,
      "componentType": 5126,
      "count": 5,
      "max": [
        1.0,
        0.0,
        0.0,
        0.0,
        0.0,
        1.0,
        0.0,
        0.0,
        0.0,
        0.0,
        1.0,
        0.0,
        0.0,
        0.0,
        0.0,
        1.0
      ],
      "min": [
        1.0,
        0.0,
        0.0,
        0.0,
        0.0,
        1.0,
        0.0,
        0.0,
        0.0,
        0.0,
        1.0,
        0.0,
        0.0,
        0.0,
        0.0,
        1.0
      ],
      "type": "MAT4"
    },
    {
      "bufferView": 4,
      "componentType": 5126,
      "count": 47,
      "max": [
        5.0
      ],
      "min": [
        2.0833332538604736
      ],
      "type": "SCALAR"
    },
    {
      "bufferView": 6,
      "componentType": 5126,
      "count": 47,
      "max": [
        0.7119482755661011,
        4.329779970841032e-17,
        0.007586928550153971,
        0.7172592282295227
      ],
      "min": [
        -0.007586928550153971,
        -0.708831250667572,
        -0.7071067094802856,
        4.329780632585522e-17
      ],
      "type": "VEC4"
    },
    {
      "bufferView": 4,
      "byteOffset": 188,
      "componentType": 5126,
      "count": 14,
      "max": [
        2.625
      ],
      "min": [
        2.3333332538604736
      ],
      "type": "SCALAR"
    },
    {
      "bufferView": 5,
      "componentType": 5126,
      "count": 14,
      "max": [
        0.0,
        6.617444900424222e-24,
        0.4076792597770691
      ],
      "min": [
        0.0,
        -6.617444900424222e-24,
        0.0
      ],
      "type": "VEC3"
    }
  ],
  "animations": [
    {
      "channels": [
        {
          "sampler": 0,
          "target": {
            "node": 9,
            "path": "rotation"
          }
        },
        {
          "sampler": 1,
          "target": {
            "node": 7,
            "path": "translation"
          }
        }
      ],
      "name": "Scene",
      "samplers": [
        {
          "input": 21,
          "interpolation": "LINEAR",
          "output": 22
        },
        {
          "input": 23,
          "interpolation": "LINEAR",
          "output": 24
        }
      ]
    }
  ],
  "asset": {
    "extras": {
      "author": "Ahbangkun (https://sketchfab.com/Ahbangkun)",
      "license": "CC-BY-4.0 (http://creativecommons.org/licenses/by/4.0/)",
      "source": "https://sketchfab.com/3d-models/lieflasher-4ebdc7202d0c46a2a3304f362adc851c",
      "title": "Lieflasher"
    },
    "generator": "Sketchfab-11.79.0",
    "version": "2.0"
  },
  "bufferViews": [
    {
      "buffer": 0,
      "byteLength": 32712,
      "name": "floatBufferViews",
      "target": 34963
    },
    {
      "buffer": 0,
      "byteLength": 33216,
      "byteOffset": 32712,
      "byteStride": 8,
      "name": "floatBufferViews",
      "target": 34962
    },
    {
      "buffer": 0,
      "byteLength": 99648,
      "byteOffset": 65928,
      "byteStride": 12,
      "name": "floatBufferViews",
      "target": 34962
    },
    {
      "buffer": 0,
      "byteLength": 320,
      "byteOffset": 165576,
      "name": "floatBufferViews"
    },
    {
      "buffer": 0,
      "byteLength": 244,
      "byteOffset": 165896,
      "name": "floatBufferViews"
    },
    {
      "buffer": 0,
      "byteLength": 168,
      "byteOffset": 166140,
      "byteStride": 12,
      "name": "floatBufferViews"
    },
    {
      "buffer": 0,
      "byteLength": 752,
      "byteOffset": 166308,
      "byteStride": 16,
      "name": "floatBufferViews"
    }
  ],
  "buffers": [
    {
      "byteLength": 167060,
      "uri": "scene.bin"
    }
  ],
  "materials": [
    {
      "doubleSided": true,
      "name": "Material",
      "pbrMetallicRoughness": {
        "baseColorFactor": [
          0.12316017104941399,
          0.04036479186914055,
          0.0025106764834592304,
          1.0
        ],
        "metallicFactor": 0.23837414892923675,
        "roughnessFactor": 0.37796944396085813
      }
    },
    {
      "doubleSided": true,
      "name": "Material.001",
      "pbrMetallicRoughness": {
        "baseColorFactor": [
          0.12213877222960187,
          0.04091519690685317,
          0.0024282158683906997,
          1.0
        ],
        "metallicFactor": 0.553980902913772,
        "roughnessFactor": 0.1918677743515322
      }
    },
    {
      "doubleSided": true,
      "emissiveFactor": [
        1.0,
        1.0,
        1.0
      ],
      "name": "Material.002",
      "pbrMetallicRoughness": {
        "baseColorFactor": [
          0.7786847000821386,
          0.7786847000821386,
          0.7786847000821386,
          1.0
        ]
      }
    }
  ],
  "meshes": [
    {
      "name": "Plane.002_Material_0",
      "primitives": [
        {
          "attributes": {
            "NORMAL": 1,
            "POSITION": 0,
            "TEXCOORD_0": 2
          },
          "indices": 3,
          "material": 0,
          "mode": 4
        }
      ]
    },
    {
      "name": "Plane.002_Material.001_0",
      "primitives": [
        {
          "attributes": {
            "NORMAL": 5,
            "POSITION": 4,
            "TEXCOORD_0": 6
          },
          "indices": 7,
          "material": 1,
          "mode": 4
        }
      ]
    },
    {
      "name": "Plane.002_Material.002_0",
      "primitives": [
        {
          "attributes": {
            "NORMAL": 9,
            "POSITION": 8,
            "TEXCOORD_0": 10
          },
          "indices": 11,
          "material": 2,
          "mode": 4
        }
      ]
    },
    {
      "name": "Plane.003_Material_0",
      "primitives": [
        {
          "attributes": {
            "NORMAL": 13,
            "POSITION": 12,
            "TEXCOORD_0": 14
          },
          "indices": 15,
          "material": 0,
          "mode": 4
        }
      ]
    },
    {
      "name": "Plane.003_Material.001_0",
      "primitives": [
        {
          "attributes": {
            "NORMAL": 17,
            "POSITION": 16,
            "TEXCOORD_0": 18
          },
          "indices": 19,
          "material": 1,
          "mode": 4
        }
      ]
    }
  ],
  "nodes": [
    {
      "children": [
        1
      ],
      "matrix": [
        1.0,
        0.0,
        0.0,
        0.0,
        0.0,
        2.220446049250313e-16,
        -1.0,
        0.0,
        0.0,
        1.0,
        2.220446049250313e-16,
        0.0,
        0.0,
        0.0,
        0.0,
        1.0
      ],
      "name": "Sketchfab_model"
    },
    {
      "children": [
        2
      ],
      "matrix": [
        0.009999999776482582,
        0.0,
        0.0,
        0.0,
        0.0,
        0.0,
        0.009999999776482582,
        0.0,
        0.0,
        -0.009999999776482582,
        0.0,
        0.0,
        0.0,
        0.0,
        0.0,
        1.0
      ],
      "name": "cc1ae0dd842d4a9cb2f4c738f7475f17.fbx"
    },
    {
      "children": [
        3
      ],
      "name": "Object_2"
    },
    {
      "children": [
        4
      ],
      "name": "RootNode"
    },
    {
      "children": [
        5
      ],
      "name": "Armature",
      "rotation": [
        -0.7071068286895752,
        0.0,
        0.0,
        0.7071067094802856
      ],
      "scale": [
        100.0,
        100.0,
        100.0
      ]
    },
    {
      "children": [
        6
      ],
      "name": "Object_5"
    },
    {
      "children": [
        7
      ],
      "name": "_rootJoint"
    },
    {
      "children": [
        8
      ],
      "name": "Bone_00",
      "rotation": [
        0.7071068286895752,
        0.0,
        0.0,
        0.7071067094802856
      ]
    },
    {
      "children": [
        9,
        15
      ],
      "name": "Bone.001_01",
      "translation": [
        0.0,
        5.682454586029053,
        -0.03133116662502289
      ]
    },
    {
      "children": [
        10,
        11
      ],
      "name": "Bone.002_02",
      "rotation": [
        0.7071068286895752,
        -3.0908619663705394e-08,
        -0.7071067690849304,
        -3.0908619663705394e-08
      ],
      "scale": [
        1.0,
        0.9999999403953552,
        1.0
      ],
      "translation": [
        0.0,
        1.0,
        0.0
      ]
    },
    {
      "name": "Bone.002_end_03",
      "rotation": [
        4.3065111940286444e-24,
        6.617444900424222e-24,
        -7.888609052210118e-31,
        1.0
      ],
      "translation": [
        6.938893903907228e-18,
        4.830084800720215,
        0.0
      ]
    },
    {
      "children": [
        12,
        13,
        14
      ],
      "name": "Plane.002",
      "rotation": [
        0.5,
        0.4999999701976776,
        -0.5,
        0.5
      ],
      "scale": [
        1.0,
        1.0,
        1.0000001192092896
      ],
      "translation": [
        -0.10498445481061935,
        6.682455539703369,
        -4.589016278089275e-09
      ]
    },
    {
      "mesh": 0,
      "name": "Plane.002_Material_0"
    },
    {
      "mesh": 1,
      "name": "Plane.002_Material.001_0"
    },
    {
      "mesh": 2,
      "name": "Plane.002_Material.002_0"
    },
    {
      "children": [
        16,
        17
      ],
      "name": "Plane.003",
      "rotation": [
        -0.7071068286895752,
        0.0,
        0.0,
        0.7071067094802856
      ],
      "translation": [
        0.0,
        -5.682454586029053,
        0.03133116662502289
      ]
    },
    {
      "mesh": 3,
      "name": "Plane.003_Material_0"
    },
    {
      "mesh": 4,
      "name": "Plane.003_Material.001_0"
    }
  ],
  "scene": 0,
  "scenes": [
    {
      "name": "Sketchfab_Scene",
      "nodes": [
        0
      ]
    }
  ],
  "skins": [
    {
      "inverseBindMatrices": 20,
      "joints": [
        6,
        7,
        8,
        9,
        10
      ],
      "skeleton": 6
    }
  ]
}
