{
  "accessors": [
    {
      "bufferView": 2,
      "componentType": 5126,
      "count": 30554,
      "max": [
        0.015000000596046448,
        0.02695000357925892,
        0.015000002458691597
      ],
      "min": [
        -0.015000000596046448,
        -0.034050002694129944,
        -0.014999998733401299
      ],
      "type": "VEC3"
    },
    {
      "bufferView": 2,
      "byteOffset": 366648,
      "componentType": 5126,
      "count": 30554,
      "max": [
        1.0,
        1.0,
        1.0
      ],
      "min": [
        -1.0,
        -1.0,
        -1.0
      ],
      "type": "VEC3"
    },
    {
      "bufferView": 1,
      "componentType": 5126,
      "count": 30554,
      "max": [
        0.9832383990287781,
        0.9999096393585205
      ],
      "min": [
        -1.1102230246251565e-16,
        0.0
      ],
      "type": "VEC2"
    },
    {
      "bufferView": 0,
      "componentType": 5125,
      "count": 124071,
      "type": "SCALAR"
    }
  ],
  "asset": {
    "extras": {
      "author": "termagroup (https://sketchfab.com/termagroup)",
      "license": "CC-BY-4.0 (http://creativecommons.org/licenses/by/4.0/)",
      "source": "https://sketchfab.com/3d-models/adapter-for-alupex-34-7777f9563f734375abf37aec8c4ff55e",
      "title": "Adapter for alupex 3/4\""
    },
    "generator": "Sketchfab-11.84.0",
    "version": "2.0"
  },
  "bufferViews": [
    {
      "buffer": 0,
      "byteLength": 496284,
      "name": "floatBufferViews",
      "target": 34963
    },
    {
      "buffer": 0,
      "byteLength": 244432,
      "byteOffset": 496284,
      "byteStride": 8,
      "name": "floatBufferViews",
      "target": 34962
    },
    {
      "buffer": 0,
      "byteLength": 733296,
      "byteOffset": 740716,
      "byteStride": 12,
      "name": "floatBufferViews",
      "target": 34962
    }
  ],
  "buffers": [
    {
      "byteLength": 1474012,
      "uri": "scene.bin"
    }
  ],
  "images": [
    {
      "uri": "textures/adapter_na_alupex_CYLINDER_gw_3_4_baseColor.png"
    },
    {
      "uri": "textures/adapter_na_alupex_CYLINDER_gw_3_4_metallicRoughness.png"
    }
  ],
  "materials": [
    {
      "name": "adapter_na_alupex_CYLINDER_gw_3_4",
      "occlusionTexture": {
        "index": 1
      },
      "pbrMetallicRoughness": {
        "baseColorTexture": {
          "index": 0
        },
        "metallicRoughnessTexture": {
          "index": 1
        }
      }
    }
  ],
  "meshes": [
    {
      "name": "adapter_na_alupex_CYLINDER_gw_3_4_adapter_na_alupex_CYLINDER_gw_3_4_0",
      "primitives": [
        {
          "attributes": {
            "NORMAL": 1,
            "POSITION": 0,
            "TEXCOORD_0": 2
          },
          "indices": 3,
          "material": 0,
          "mode": 4
        }
      ]
    }
  ],
  "nodes": [
    {
      "children": [
        1
      ],
      "matrix": [
        0.9965686202049255,
        -1.8378780268819675e-17,
        0.08277066797018051,
        0.0,
        0.08277066797018051,
        2.2128268555408626e-16,
        -0.9965686202049255,
        0.0,
        0.0,
        1.0,
        2.220446049250313e-16,
        0.0,
        0.00029383460059762,
        2.068951676645407e-09,
        1.218208490172401e-05,
        1.0
      ],
      "name": "Sketchfab_model"
    },
    {
      "children": [
        2
      ],
      "matrix": [
        0.009999999776482582,
        0.0,
        0.0,
        0.0,
        0.0,
        0.0,
        0.009999999776482582,
        0.0,
        0.0,
        -0.009999999776482582,
        0.0,
        0.0,
        0.0,
        0.0,
        0.0,
        1.0
      ],
      "name": "adapter_na_alupex_CYLINDER_gw_3_4.fbx"
    },
    {
      "children": [
        3
      ],
      "name": "RootNode"
    },
    {
      "children": [
        4
      ],
      "matrix": [
        100.0,
        0.0,
        0.0,
        0.0,
        0.0,
        -1.629206793918314e-05,
        -99.99999999999868,
        0.0,
        0.0,
        99.99999999999868,
        -1.629206793918314e-05,
        0.0,
        0.0,
        0.0,
        0.0,
        1.0
      ],
      "name": "adapter_na_alupex_CYLINDER_gw_3_4"
    },
    {
      "mesh": 0,
      "name": "adapter_na_alupex_CYLINDER_gw_3_4_adapter_na_alupex_CYLINDER_gw_3_4_0"
    }
  ],
  "samplers": [
    {
      "magFilter": 9729,
      "minFilter": 9987,
      "wrapS": 10497,
      "wrapT": 10497
    }
  ],
  "scene": 0,
  "scenes": [
    {
      "name": "Sketchfab_Scene",
      "nodes": [
        0
      ]
    }
  ],
  "textures": [
    {
      "sampler": 0,
      "source": 0
    },
    {
      "sampler": 0,
      "source": 1
    }
  ]
}
